# xmcd
#
# Track frame offsets:
#	332
#	3095
#	26455
#	44955
#	63495
#	80807
#	98540
#	114575
#	136840
#	157585
#	175155
#	197622
#	219077
#	241642
#	259260
#	273087
#	299187
#
# Disc length: 4302 seconds
#
# Revision: 0
# Processed by: cddbd v1.5.2PL0 Copyright (c) Steve Scherf et al.
# Submitted via: EasyCDDAExtractor 9.0.0.1
#
DISCID=e410ca11
DTITLE=Various Artist - Kryptonite Volume 2
DYEAR=1996
DGENRE=House
TTITLE0=Intro  - Intro
TTITLE1=2 Fabiola - Lift Me Up (Club Mix)
TTITLE2=C-12 - I Want Yo'l (Funky House Mix)
TTITLE3=Timezone - Imagination (Radio Mix)
TTITLE4=KC Flightt - Bang (Mixmaster Clubmix)
TTITLE5=Atttraction - I've Got 2 Have Your Love
TTITLE6=Bum Bum - Your Love (Plastic Vocal Mix)
TTITLE7=Casino - Get Funky (Club Mix)
TTITLE8=Groove Solution - Magic Melody (Club Mix)
TTITLE9=Smoke Machine - Disco Sound (Original Mix)
TTITLE10=Anthony Prince - Vox-O-Matic (Pragamatic Mix)
TTITLE11=II Brothers ft Asher Senator - Move It Up (II Mix)
TTITLE12=Me and Mr Jones - Keep On, Be Strong (Long Cut)
TTITLE13=Fortune Cookies - Can You Feel The Juice
TTITLE14=The Un-Explained - X Files
TTITLE15=Lil "Mo" Yin Yang - Reach (Alcatraz Mix)
TTITLE16=Nuttin' Nyce - Nasty Girl (Mr Lee's Euro Club Mix)
EXTD=
EXTT0=
EXTT1=
EXTT2=
EXTT3=
EXTT4=
EXTT5=
EXTT6=
EXTT7=
EXTT8=
EXTT9=
EXTT10=
EXTT11=
EXTT12=
EXTT13=
EXTT14=
EXTT15=
EXTT16=
PLAYORDER=
